<svg width="182" height="26" viewBox="0 0 182 26" fill="none" xmlns="http://www.w3.org/2000/svg">
<g clip-path="url(#clip0_61_20)">
<path fill-rule="evenodd" clip-rule="evenodd" d="M86.2598 24.662L84.3506 0H94.0699L95.4584 14.8672L110.558 0H122.707L97.0205 24.662H86.2598Z" fill="black"/>
<path fill-rule="evenodd" clip-rule="evenodd" d="M155.163 24.662C152.386 24.662 150.65 24.1374 149.782 22.913C149.088 22.0384 149.088 20.8141 149.609 19.4148L156.899 0H169.394C170.089 0 169.222 0.349817 169.222 0.349817C168.7 0.699634 164.883 3.67307 163.667 6.99634L159.675 17.6658C159.501 18.1905 159.501 18.7153 159.675 18.89C160.023 19.4148 161.065 19.5897 161.759 19.5897H181.718L177.206 24.662H155.163Z" fill="black"/>
<path fill-rule="evenodd" clip-rule="evenodd" d="M60.9197 24.6622L62.6552 19.9397H57.2749C53.4566 19.9397 50.3324 20.9892 48.4233 22.5633C47.729 23.263 46.5141 24.4872 46.5141 24.4872H36.1006C36.1006 24.4872 47.2084 13.8179 52.4153 8.74552C55.3657 5.94699 58.3163 3.84808 61.2668 2.44882C63.0024 1.57428 64.5644 1.04955 66.1265 0.699738C67.862 0.349921 71.5068 -0.174805 78.2757 -0.174805C78.4493 0.349921 69.4241 24.6622 69.4241 24.6622H60.9197ZM64.738 15.392L68.9034 5.59717C67.5149 5.77209 64.9116 6.29681 62.6552 7.87098C60.0518 9.44516 55.8864 14.1677 54.4979 15.392H64.738Z" fill="black"/>
<path fill-rule="evenodd" clip-rule="evenodd" d="M132.079 24.6622L133.814 19.9397H128.434C124.789 19.9397 121.492 20.9892 119.582 22.5633C118.888 23.263 117.673 24.4872 117.673 24.4872H107.26C107.26 24.4872 118.367 13.8179 123.574 8.74552C126.525 5.94699 129.475 3.84808 132.426 2.44882C134.161 1.57428 135.723 1.04955 137.286 0.699738C139.022 0.349921 142.666 -0.174805 149.435 -0.174805C149.608 0.349921 140.584 24.6622 140.584 24.6622H132.079ZM135.723 15.392L139.888 5.59717C138.5 5.77209 135.897 6.29681 133.641 7.87098C131.037 9.44516 126.872 14.1677 125.483 15.392H135.723Z" fill="black"/>
<path fill-rule="evenodd" clip-rule="evenodd" d="M21.0008 24.662C21.0008 24.662 24.4719 17.3159 26.034 13.9926C21.3479 14.1676 18.0502 14.5174 15.7939 16.0915C13.8848 17.4908 12.4963 19.5897 10.4136 24.4872V24.662H0L6.24816 11.544L11.6285 0H21.6949C21.6949 0 18.3973 7.17124 17.0089 9.96977C20.3066 9.44505 27.0754 9.27015 28.2903 9.27015L32.6293 0H43.0429L31.4144 24.662H21.0008Z" fill="black"/>
</g>
<defs>
<clipPath id="clip0_61_20">
<rect width="182" height="25.8632" fill="white"/>
</clipPath>
</defs>
</svg>
