<svg width="183" height="26" viewBox="0 0 183 26" fill="none" xmlns="http://www.w3.org/2000/svg">
<g clip-path="url(#clip0_61_146)">
<path fill-rule="evenodd" clip-rule="evenodd" d="M86.7162 24.7925L84.7969 0H94.5676L95.9635 14.9459L111.143 0H123.357L97.5338 24.7925H86.7162Z" fill="white"/>
<path fill-rule="evenodd" clip-rule="evenodd" d="M155.984 24.7925C153.192 24.7925 151.447 24.2651 150.574 23.0342C149.877 22.155 149.877 20.9243 150.401 19.5175L157.729 0H170.291C170.988 0 170.117 0.351668 170.117 0.351668C169.593 0.703336 165.755 3.69251 164.533 7.03336L160.52 17.7592C160.345 18.2868 160.345 18.8143 160.52 18.99C160.87 19.5175 161.917 19.6934 162.614 19.6934H182.679L178.143 24.7925H155.984Z" fill="white"/>
<path fill-rule="evenodd" clip-rule="evenodd" d="M61.2424 24.7926L62.9871 20.0451H57.5784C53.7398 20.0451 50.5992 21.1002 48.68 22.6826C47.982 23.386 46.7606 24.6167 46.7606 24.6167H36.292C36.292 24.6167 47.4586 13.8909 52.693 8.79174C55.659 5.9784 58.6252 3.86839 61.5914 2.46172C63.3361 1.58255 64.9064 1.05506 66.4768 0.703388C68.2215 0.35172 71.8855 -0.175781 78.6902 -0.175781C78.8647 0.35172 69.7918 24.7926 69.7918 24.7926H61.2424ZM65.0809 15.4734L69.2683 5.62673C67.8725 5.80257 65.2554 6.33007 62.9871 7.91257C60.3699 9.49508 56.1825 14.2426 54.7867 15.4734H65.0809Z" fill="white"/>
<path fill-rule="evenodd" clip-rule="evenodd" d="M132.778 24.7926L134.522 20.0451H129.114C125.449 20.0451 122.134 21.1002 120.215 22.6826C119.517 23.386 118.296 24.6167 118.296 24.6167H107.827C107.827 24.6167 118.994 13.8909 124.228 8.79174C127.194 5.9784 130.16 3.86839 133.126 2.46172C134.871 1.58255 136.442 1.05506 138.012 0.703388C139.757 0.35172 143.421 -0.175781 150.226 -0.175781C150.399 0.35172 141.328 24.7926 141.328 24.7926H132.778ZM136.442 15.4734L140.628 5.62673C139.233 5.80257 136.616 6.33007 134.348 7.91257C131.731 9.49508 127.543 14.2426 126.147 15.4734H136.442Z" fill="white"/>
<path fill-rule="evenodd" clip-rule="evenodd" d="M21.1119 24.7925C21.1119 24.7925 24.6014 17.4075 26.1718 14.0667C21.4609 14.2425 18.1457 14.5942 15.8775 16.1767C13.9583 17.5834 12.5624 19.6934 10.4687 24.6168V24.7925H0L6.28121 11.605L11.6901 0H21.8097C21.8097 0 18.4947 7.20918 17.0988 10.0225C20.414 9.49502 27.2186 9.31919 28.44 9.31919L32.802 0H43.2706L31.5806 24.7925H21.1119Z" fill="white"/>
</g>
<defs>
<clipPath id="clip0_61_146">
<rect width="182.963" height="26" fill="white"/>
</clipPath>
</defs>
</svg>
