<svg width="100" height="104" viewBox="0 0 100 104" fill="none" xmlns="http://www.w3.org/2000/svg">
<path d="M100 44.0678C100 68.4058 77.6142 88.1356 50 88.1356C22.3858 88.1356 0 68.4058 0 44.0678C0 19.7298 22.3858 0 50 0C77.6142 0 100 19.7298 100 44.0678Z" fill="white"/>
<path d="M47 104L68.6506 80.2034H25.3494L47 104Z" fill="white"/>
<g clip-path="url(#clip0_1_162)">
<path fill-rule="evenodd" clip-rule="evenodd" d="M47.442 49.4891L46.6133 39H50.8321L51.4348 45.3233L57.9891 39H63.2627L52.1129 49.4891H47.442Z" fill="#272727"/>
<path fill-rule="evenodd" clip-rule="evenodd" d="M77.3514 49.4891C76.1458 49.4891 75.3923 49.266 75.0156 48.7452C74.7143 48.3733 74.7143 47.8526 74.9407 47.2574L78.1049 39H83.5287C83.83 39 83.4539 39.1488 83.4539 39.1488C83.2275 39.2976 81.5702 40.5622 81.0426 41.9757L79.3099 46.5135C79.2344 46.7367 79.2344 46.9599 79.3099 47.0342C79.4608 47.2574 79.913 47.3318 80.2143 47.3318H88.8777L86.9193 49.4891H77.3514Z" fill="#272727"/>
<path fill-rule="evenodd" clip-rule="evenodd" d="M36.4432 49.4891L37.1965 47.4805H34.8611C33.2037 47.4805 31.8476 47.9269 31.0189 48.5964C30.7176 48.894 30.1902 49.4147 30.1902 49.4147H25.67C25.67 49.4147 30.4916 44.8768 32.7517 42.7195C34.0324 41.5292 35.3131 40.6365 36.5939 40.0414C37.3472 39.6694 38.0252 39.4463 38.7033 39.2975C39.4566 39.1487 41.0387 38.9255 43.9768 38.9255C44.0522 39.1487 40.1346 49.4891 40.1346 49.4891H36.4432ZM38.1006 45.5463L39.9086 41.3804C39.3059 41.4548 38.1759 41.678 37.1965 42.3475C36.0664 43.0171 34.2584 45.0256 33.6557 45.5463H38.1006Z" fill="#272727"/>
<path fill-rule="evenodd" clip-rule="evenodd" d="M67.3307 49.4893L68.0841 47.4808H65.7487C64.1666 47.4808 62.7352 47.9271 61.9065 48.5966C61.6051 48.8942 61.0778 49.4149 61.0778 49.4149H56.5576C56.5576 49.4149 61.3791 44.8771 63.6393 42.7197C64.9199 41.5295 66.2007 40.6368 67.4814 40.0416C68.2348 39.6697 68.9128 39.4465 69.591 39.2977C70.3445 39.149 71.9262 38.9258 74.8646 38.9258C74.9394 39.149 71.0225 49.4893 71.0225 49.4893H67.3307ZM68.9128 45.5466L70.7206 41.3807C70.1181 41.4551 68.9879 41.6783 68.0087 42.3478C66.8787 43.0173 65.0706 45.0259 64.4679 45.5466H68.9128Z" fill="#272727"/>
<path fill-rule="evenodd" clip-rule="evenodd" d="M19.1157 49.4891C19.1157 49.4891 20.6224 46.3647 21.3005 44.9513C19.2664 45.0257 17.835 45.1745 16.8556 45.844C16.0269 46.4391 15.4242 47.3318 14.5202 49.4148V49.4891H10L12.7121 43.9098L15.0475 39H19.417C19.417 39 17.9857 42.05 17.383 43.2403C18.8144 43.0171 21.7525 42.9427 22.2798 42.9427L24.1633 39H28.6834L23.6359 49.4891H19.1157Z" fill="#272727"/>
</g>
<defs>
<clipPath id="clip0_1_162">
<rect width="79" height="11" fill="white" transform="translate(10 39)"/>
</clipPath>
</defs>
</svg>
